<svg xmlns="http://www.w3.org/2000/svg" xmlns:xlink="http://www.w3.org/1999/xlink" width="500" zoomAndPan="magnify" viewBox="0 0 375 374.999991" height="500" preserveAspectRatio="xMidYMid meet" version="1.0"><defs><g/><clipPath id="bb4fb5f9ab"><path d="M 12.953125 168.882812 L 217.816406 168.882812 L 217.816406 215.640625 L 12.953125 215.640625 Z M 12.953125 168.882812 " clip-rule="nonzero"/></clipPath></defs><g fill="#9fc2f1" fill-opacity="1"><g transform="translate(-17.162565, 321.726476)"><g><path d="M 30.4375 -269.140625 L 127.4375 -269.140625 L 127.4375 0 L 30.4375 0 Z M 30.4375 -269.140625 "/></g></g></g><g fill="#00285d" fill-opacity="1"><g transform="translate(86.109373, 321.681094)"><g><path d="M 159.765625 -79.03125 L 176.71875 -78.265625 C 201.34375 -78.265625 221.65625 -86.390625 237.65625 -102.640625 C 253.90625 -119.015625 262.410156 -140.21875 263.171875 -166.25 C 264.566406 -206.363281 245.269531 -233.46875 205.28125 -247.5625 C 190.300781 -252.894531 170.816406 -255.5625 146.828125 -255.5625 L 130.828125 -255.5625 L 130.828125 0 L 33.703125 0 L 33.703125 -269.453125 L 106.640625 -269.453125 C 145.992188 -269.453125 169.734375 -268.878906 177.859375 -267.734375 C 185.984375 -266.597656 194.457031 -265.140625 203.28125 -263.359375 C 212.101562 -261.585938 221.625 -257.71875 231.84375 -251.75 C 242.0625 -245.78125 250.726562 -238.671875 257.84375 -230.421875 C 272.1875 -213.660156 279.101562 -193.984375 278.59375 -171.390625 C 277.832031 -142.566406 269.390625 -118.570312 253.265625 -99.40625 C 236.890625 -80.101562 214.296875 -68.171875 185.484375 -63.609375 C 177.097656 -62.460938 170.492188 -61.890625 165.671875 -61.890625 C 154.242188 -61.890625 148.53125 -65 148.53125 -71.21875 C 148.53125 -73.507812 149.546875 -75.382812 151.578125 -76.84375 C 153.609375 -78.300781 156.335938 -79.03125 159.765625 -79.03125 Z M 159.765625 -79.03125 "/></g></g></g><g clip-path="url(#bb4fb5f9ab)"><path fill="#f2f2f2" d="M 12.953125 168.882812 L 217.878906 168.882812 L 217.878906 215.640625 L 12.953125 215.640625 Z M 12.953125 168.882812 " fill-opacity="1" fill-rule="nonzero"/></g><g fill="#00285d" fill-opacity="1"><g transform="translate(35.822857, 199.760759)"><g><path d="M 0.109375 3.300781 C 0.273438 3.300781 0.386719 3.191406 0.441406 3.078125 C 0.496094 2.914062 0.660156 2.640625 0.824219 2.308594 C 0.933594 2.199219 0.988281 2.144531 1.15625 2.089844 L 2.417969 2.089844 C 3.738281 2.089844 4.675781 2.199219 5.113281 2.363281 C 5.167969 2.417969 5.226562 2.417969 5.28125 2.417969 C 5.445312 2.417969 5.609375 2.253906 5.609375 2.089844 C 5.609375 1.980469 5.5 1.871094 5.390625 1.816406 C 4.894531 1.539062 3.851562 1.429688 2.417969 1.429688 L 1.703125 1.429688 C 1.484375 1.484375 1.429688 1.320312 1.539062 1.15625 C 4.125 -2.859375 10.285156 -11.109375 15.179688 -16.554688 C 15.289062 -16.664062 15.398438 -16.71875 15.507812 -16.664062 C 16.445312 -16.554688 17.433594 -16.335938 18.371094 -16.058594 L 18.480469 -16.058594 C 18.644531 -16.058594 18.808594 -16.167969 18.808594 -16.390625 C 18.808594 -16.5 18.699219 -16.609375 18.535156 -16.664062 C 17.765625 -16.882812 16.996094 -17.050781 16.167969 -17.214844 C 16.003906 -17.214844 15.949219 -17.378906 16.058594 -17.542969 L 16.554688 -17.984375 C 16.609375 -18.039062 16.609375 -18.148438 16.609375 -18.203125 C 16.609375 -18.425781 16.5 -18.535156 16.335938 -18.535156 C 16.222656 -18.535156 16.167969 -18.480469 16.113281 -18.425781 C 15.785156 -18.148438 15.507812 -17.820312 15.234375 -17.488281 C 15.125 -17.433594 15.015625 -17.378906 14.90625 -17.378906 C 14.355469 -17.433594 13.804688 -17.488281 13.308594 -17.488281 C 11.660156 -17.488281 10.175781 -17.324219 9.679688 -17.105469 C 9.570312 -17.050781 9.515625 -16.9375 9.515625 -16.828125 C 9.515625 -16.664062 9.679688 -16.5 9.84375 -16.5 C 9.898438 -16.5 9.953125 -16.5 9.953125 -16.554688 C 10.339844 -16.71875 11.769531 -16.828125 13.308594 -16.828125 L 14.1875 -16.828125 C 14.410156 -16.828125 14.464844 -16.664062 14.300781 -16.5 C 9.183594 -10.835938 2.96875 -2.417969 0.660156 1.375 C 0.605469 1.484375 0.496094 1.539062 0.386719 1.539062 C -0.824219 1.648438 -2.253906 1.871094 -3.464844 2.253906 C -3.574219 2.253906 -3.683594 2.417969 -3.683594 2.53125 C -3.683594 2.75 -3.574219 2.859375 -3.355469 2.859375 L -3.300781 2.859375 C -2.308594 2.585938 -1.210938 2.363281 -0.164062 2.253906 C 0 2.199219 0.109375 2.363281 0 2.53125 C -0.0546875 2.640625 -0.109375 2.75 -0.164062 2.859375 L -0.164062 2.96875 C -0.164062 3.136719 -0.0546875 3.300781 0.109375 3.300781 Z M 0.109375 3.300781 "/></g></g></g><g fill="#00285d" fill-opacity="1"><g transform="translate(47.866985, 199.760759)"><g><path d="M -11.605469 13.96875 C -11.328125 13.96875 -11 13.53125 -10.722656 13.089844 C -10.613281 12.925781 -10.613281 12.757812 -10.722656 12.703125 C -5.5 4.511719 1.15625 -4.070312 7.976562 -12.042969 C 12.757812 -12.265625 17.652344 -12.265625 22.328125 -12.097656 C 22.550781 -12.097656 22.660156 -12.210938 22.660156 -12.375 C 22.660156 -12.539062 22.550781 -12.703125 22.382812 -12.703125 C 17.820312 -12.871094 13.144531 -12.871094 8.578125 -12.703125 C 11.550781 -16.167969 14.519531 -19.523438 17.488281 -22.714844 C 17.542969 -22.769531 17.542969 -22.878906 17.542969 -22.933594 C 17.542969 -23.097656 17.433594 -23.265625 17.214844 -23.265625 C 17.160156 -23.265625 17.050781 -23.207031 16.996094 -23.152344 C 13.914062 -19.800781 10.78125 -16.277344 7.699219 -12.648438 C 2.75 -12.484375 -2.035156 -12.097656 -6.324219 -11.550781 C -6.488281 -11.496094 -6.601562 -11.382812 -6.601562 -11.21875 C -6.601562 -11.054688 -6.433594 -10.890625 -6.269531 -10.890625 L -6.214844 -10.890625 C -2.144531 -11.441406 2.417969 -11.824219 7.148438 -12.042969 C 0.21875 -3.90625 -6.433594 4.730469 -11.714844 13.035156 C -11.769531 13.144531 -11.824219 13.253906 -11.878906 13.363281 L -11.933594 13.417969 C -12.042969 13.75 -11.988281 13.96875 -11.605469 13.96875 Z M -11.605469 13.96875 "/></g></g></g><g fill="#00285d" fill-opacity="1"><g transform="translate(56.061389, 199.760759)"><g><path d="M 9.128906 -11.550781 C 9.183594 -11.769531 9.347656 -11.988281 9.679688 -11.988281 C 9.898438 -11.988281 10.007812 -11.878906 10.007812 -11.769531 C 10.007812 -11.164062 8.964844 -9.84375 7.863281 -9.84375 C 7.808594 -9.84375 7.699219 -9.84375 7.699219 -9.953125 C 7.699219 -10.175781 7.808594 -10.175781 8.085938 -10.285156 C 8.578125 -10.394531 9.019531 -11.109375 9.128906 -11.550781 Z M 9.128906 -11.550781 "/></g></g></g><g fill="#00285d" fill-opacity="1"><g transform="translate(60.956038, 199.760759)"><g><path d="M -0.21875 2.640625 C 1.59375 2.640625 3.960938 0.714844 5.058594 -0.878906 L 5.226562 -0.988281 C 6.65625 -1.429688 8.414062 -1.980469 10.285156 -2.53125 C 12.15625 -3.078125 14.132812 -3.628906 15.785156 -4.179688 C 15.949219 -4.234375 16.003906 -4.34375 16.003906 -4.511719 C 16.003906 -4.675781 15.894531 -4.785156 15.730469 -4.785156 L 15.621094 -4.785156 C 13.96875 -4.234375 11.988281 -3.683594 10.121094 -3.136719 C 8.578125 -2.695312 7.039062 -2.199219 5.71875 -1.816406 C 5.664062 -1.761719 5.609375 -1.816406 5.609375 -1.925781 C 5.664062 -2.035156 5.664062 -2.144531 5.71875 -2.199219 C 5.71875 -2.75 5.335938 -2.96875 4.675781 -2.96875 C 4.234375 -2.96875 3.683594 -2.859375 3.078125 -2.75 C 2.476562 -2.640625 1.816406 -2.53125 1.320312 -2.53125 C 0.824219 -2.53125 0.660156 -2.640625 0.660156 -2.804688 C 0.660156 -4.070312 3.519531 -6.269531 5.167969 -6.269531 C 5.445312 -6.269531 5.5 -6.160156 5.5 -5.996094 C 5.5 -5.609375 5.003906 -5.003906 4.621094 -4.785156 C 4.511719 -4.730469 4.453125 -4.621094 4.453125 -4.511719 C 4.453125 -4.289062 4.621094 -4.179688 4.785156 -4.179688 C 4.839844 -4.179688 4.894531 -4.179688 4.949219 -4.234375 C 5.445312 -4.511719 5.941406 -5.167969 6.105469 -5.828125 C 6.160156 -5.882812 6.160156 -5.996094 6.160156 -6.050781 C 6.160156 -6.542969 5.773438 -6.875 5.167969 -6.875 C 3.191406 -6.875 0 -4.398438 0 -2.804688 C 0 -2.199219 0.496094 -1.925781 1.320312 -1.925781 C 1.871094 -1.925781 2.53125 -2.035156 3.191406 -2.144531 C 3.628906 -2.199219 5.003906 -2.417969 5.058594 -2.253906 C 5.167969 -2.089844 4.949219 -1.816406 4.785156 -1.539062 C 4.785156 -1.484375 4.730469 -1.484375 4.675781 -1.484375 C 2.476562 -0.660156 -1.15625 0.878906 -1.15625 1.925781 C -1.15625 2.417969 -0.824219 2.640625 -0.21875 2.640625 Z M -0.21875 1.980469 C -0.496094 1.980469 -0.550781 1.980469 -0.550781 1.871094 C -0.550781 1.59375 1.375 0.496094 3.683594 -0.441406 C 3.851562 -0.441406 3.90625 -0.386719 3.792969 -0.273438 C 2.695312 0.878906 1.046875 1.980469 -0.21875 1.980469 Z M -0.21875 1.980469 "/></g></g></g><g fill="#00285d" fill-opacity="1"><g transform="translate(75.419984, 199.760759)"><g/></g></g><g fill="#00285d" fill-opacity="1"><g transform="translate(87.574101, 199.760759)"><g><path d="M 1.871094 3.792969 C 2.089844 3.683594 2.253906 3.191406 2.363281 2.640625 C 2.363281 2.476562 2.308594 2.363281 2.199219 2.308594 C 2.640625 1.15625 3.628906 -0.550781 5.773438 -3.464844 C 6.601562 -3.246094 7.535156 -3.078125 8.46875 -3.078125 C 16.773438 -3.078125 24.417969 -9.734375 24.417969 -14.90625 C 24.417969 -17.378906 22.550781 -18.808594 19.304688 -18.808594 C 13.53125 -18.808594 5.882812 -14.90625 2.640625 -10.230469 C 2.585938 -10.175781 2.585938 -10.121094 2.585938 -10.066406 C 2.585938 -9.898438 2.695312 -9.734375 2.859375 -9.734375 C 2.96875 -9.734375 3.078125 -9.789062 3.136719 -9.898438 C 6.324219 -14.355469 13.695312 -18.148438 19.304688 -18.148438 C 22.21875 -18.148438 23.757812 -17.050781 23.757812 -14.90625 C 23.757812 -10.007812 16.554688 -3.738281 8.46875 -3.738281 C 7.644531 -3.738281 6.875 -3.851562 6.214844 -4.015625 C 8.578125 -7.257812 11.878906 -10.890625 14.792969 -13.363281 C 14.847656 -13.417969 14.90625 -13.472656 14.90625 -13.585938 C 14.90625 -13.75 14.738281 -13.914062 14.574219 -13.914062 C 14.519531 -13.914062 14.464844 -13.859375 14.410156 -13.804688 C 11.382812 -11.273438 8.03125 -7.535156 5.554688 -4.234375 C 4.621094 -4.566406 3.960938 -5.058594 3.683594 -5.554688 C 3.628906 -5.664062 3.519531 -5.71875 3.355469 -5.71875 C 3.191406 -5.71875 3.078125 -5.609375 3.078125 -5.445312 L 3.078125 -5.28125 C 3.464844 -4.621094 4.179688 -4.070312 5.167969 -3.683594 C 2.75 -0.386719 1.648438 1.648438 1.429688 2.804688 C 1.375 3.136719 1.320312 3.410156 1.375 3.574219 C 1.429688 3.738281 1.648438 3.851562 1.871094 3.792969 Z M 1.871094 3.792969 "/></g></g></g><g fill="#00285d" fill-opacity="1"><g transform="translate(106.547729, 199.760759)"><g><path d="M -0.328125 0.441406 C 1.429688 0.441406 3.136719 -2.53125 2.804688 -4.675781 C 2.804688 -4.785156 2.859375 -4.894531 2.96875 -4.785156 C 6.160156 -2.804688 10.394531 -2.585938 13.253906 -4.234375 C 13.363281 -4.289062 13.472656 -4.398438 13.472656 -4.511719 C 13.472656 -4.675781 13.308594 -4.785156 13.144531 -4.785156 L 12.980469 -4.785156 C 10.339844 -3.246094 6.488281 -3.464844 3.519531 -5.226562 C 3.410156 -5.28125 3.410156 -5.335938 3.519531 -5.390625 C 3.574219 -5.445312 3.683594 -5.445312 3.738281 -5.5 C 3.90625 -5.5 3.960938 -5.609375 3.960938 -5.773438 C 3.960938 -5.941406 3.851562 -6.105469 3.683594 -6.105469 C 3.628906 -6.105469 3.574219 -6.105469 3.574219 -6.050781 C 3.300781 -5.996094 3.023438 -5.882812 2.804688 -5.773438 C 2.695312 -5.71875 2.695312 -5.71875 2.585938 -5.773438 C 2.363281 -5.828125 2.144531 -5.664062 2.035156 -5.445312 C 2.035156 -5.390625 1.980469 -5.390625 1.980469 -5.335938 C 0.0546875 -4.179688 -1.375 -2.363281 -1.375 -0.824219 C -1.375 -0.0546875 -0.988281 0.441406 -0.328125 0.441406 Z M -0.328125 -0.164062 C -0.605469 -0.164062 -0.769531 -0.386719 -0.769531 -0.824219 C -0.769531 -2.089844 0.496094 -3.683594 2.199219 -4.730469 C 2.476562 -2.96875 0.988281 -0.164062 -0.328125 -0.164062 Z M -0.328125 -0.164062 "/></g></g></g><g fill="#00285d" fill-opacity="1"><g transform="translate(118.426867, 199.760759)"><g><path d="M -0.21875 2.640625 C 1.59375 2.640625 3.960938 0.714844 5.058594 -0.878906 L 5.226562 -0.988281 C 6.65625 -1.429688 8.414062 -1.980469 10.285156 -2.53125 C 12.15625 -3.078125 14.132812 -3.628906 15.785156 -4.179688 C 15.949219 -4.234375 16.003906 -4.34375 16.003906 -4.511719 C 16.003906 -4.675781 15.894531 -4.785156 15.730469 -4.785156 L 15.621094 -4.785156 C 13.96875 -4.234375 11.988281 -3.683594 10.121094 -3.136719 C 8.578125 -2.695312 7.039062 -2.199219 5.71875 -1.816406 C 5.664062 -1.761719 5.609375 -1.816406 5.609375 -1.925781 C 5.664062 -2.035156 5.664062 -2.144531 5.71875 -2.199219 C 5.71875 -2.75 5.335938 -2.96875 4.675781 -2.96875 C 4.234375 -2.96875 3.683594 -2.859375 3.078125 -2.75 C 2.476562 -2.640625 1.816406 -2.53125 1.320312 -2.53125 C 0.824219 -2.53125 0.660156 -2.640625 0.660156 -2.804688 C 0.660156 -4.070312 3.519531 -6.269531 5.167969 -6.269531 C 5.445312 -6.269531 5.5 -6.160156 5.5 -5.996094 C 5.5 -5.609375 5.003906 -5.003906 4.621094 -4.785156 C 4.511719 -4.730469 4.453125 -4.621094 4.453125 -4.511719 C 4.453125 -4.289062 4.621094 -4.179688 4.785156 -4.179688 C 4.839844 -4.179688 4.894531 -4.179688 4.949219 -4.234375 C 5.445312 -4.511719 5.941406 -5.167969 6.105469 -5.828125 C 6.160156 -5.882812 6.160156 -5.996094 6.160156 -6.050781 C 6.160156 -6.542969 5.773438 -6.875 5.167969 -6.875 C 3.191406 -6.875 0 -4.398438 0 -2.804688 C 0 -2.199219 0.496094 -1.925781 1.320312 -1.925781 C 1.871094 -1.925781 2.53125 -2.035156 3.191406 -2.144531 C 3.628906 -2.199219 5.003906 -2.417969 5.058594 -2.253906 C 5.167969 -2.089844 4.949219 -1.816406 4.785156 -1.539062 C 4.785156 -1.484375 4.730469 -1.484375 4.675781 -1.484375 C 2.476562 -0.660156 -1.15625 0.878906 -1.15625 1.925781 C -1.15625 2.417969 -0.824219 2.640625 -0.21875 2.640625 Z M -0.21875 1.980469 C -0.496094 1.980469 -0.550781 1.980469 -0.550781 1.871094 C -0.550781 1.59375 1.375 0.496094 3.683594 -0.441406 C 3.851562 -0.441406 3.90625 -0.386719 3.792969 -0.273438 C 2.695312 0.878906 1.046875 1.980469 -0.21875 1.980469 Z M -0.21875 1.980469 "/></g></g></g><g fill="#00285d" fill-opacity="1"><g transform="translate(132.890813, 199.760759)"><g><path d="M -0.21875 2.640625 C 1.59375 2.640625 3.960938 0.714844 5.058594 -0.878906 L 5.226562 -0.988281 C 6.65625 -1.429688 8.414062 -1.980469 10.285156 -2.53125 C 12.15625 -3.078125 14.132812 -3.628906 15.785156 -4.179688 C 15.949219 -4.234375 16.003906 -4.34375 16.003906 -4.511719 C 16.003906 -4.675781 15.894531 -4.785156 15.730469 -4.785156 L 15.621094 -4.785156 C 13.96875 -4.234375 11.988281 -3.683594 10.121094 -3.136719 C 8.578125 -2.695312 7.039062 -2.199219 5.71875 -1.816406 C 5.664062 -1.761719 5.609375 -1.816406 5.609375 -1.925781 C 5.664062 -2.035156 5.664062 -2.144531 5.71875 -2.199219 C 5.71875 -2.75 5.335938 -2.96875 4.675781 -2.96875 C 4.234375 -2.96875 3.683594 -2.859375 3.078125 -2.75 C 2.476562 -2.640625 1.816406 -2.53125 1.320312 -2.53125 C 0.824219 -2.53125 0.660156 -2.640625 0.660156 -2.804688 C 0.660156 -4.070312 3.519531 -6.269531 5.167969 -6.269531 C 5.445312 -6.269531 5.5 -6.160156 5.5 -5.996094 C 5.5 -5.609375 5.003906 -5.003906 4.621094 -4.785156 C 4.511719 -4.730469 4.453125 -4.621094 4.453125 -4.511719 C 4.453125 -4.289062 4.621094 -4.179688 4.785156 -4.179688 C 4.839844 -4.179688 4.894531 -4.179688 4.949219 -4.234375 C 5.445312 -4.511719 5.941406 -5.167969 6.105469 -5.828125 C 6.160156 -5.882812 6.160156 -5.996094 6.160156 -6.050781 C 6.160156 -6.542969 5.773438 -6.875 5.167969 -6.875 C 3.191406 -6.875 0 -4.398438 0 -2.804688 C 0 -2.199219 0.496094 -1.925781 1.320312 -1.925781 C 1.871094 -1.925781 2.53125 -2.035156 3.191406 -2.144531 C 3.628906 -2.199219 5.003906 -2.417969 5.058594 -2.253906 C 5.167969 -2.089844 4.949219 -1.816406 4.785156 -1.539062 C 4.785156 -1.484375 4.730469 -1.484375 4.675781 -1.484375 C 2.476562 -0.660156 -1.15625 0.878906 -1.15625 1.925781 C -1.15625 2.417969 -0.824219 2.640625 -0.21875 2.640625 Z M -0.21875 1.980469 C -0.496094 1.980469 -0.550781 1.980469 -0.550781 1.871094 C -0.550781 1.59375 1.375 0.496094 3.683594 -0.441406 C 3.851562 -0.441406 3.90625 -0.386719 3.792969 -0.273438 C 2.695312 0.878906 1.046875 1.980469 -0.21875 1.980469 Z M -0.21875 1.980469 "/></g></g></g><g fill="#00285d" fill-opacity="1"><g transform="translate(147.35476, 199.760759)"><g><path d="M 3.960938 -7.09375 C 4.070312 -7.09375 4.125 -7.09375 4.179688 -7.203125 L 4.398438 -7.425781 C 4.566406 -7.699219 4.785156 -7.976562 4.894531 -8.085938 C 4.949219 -8.140625 4.949219 -8.25 4.949219 -8.304688 C 4.949219 -8.46875 4.839844 -8.632812 4.675781 -8.632812 C 4.566406 -8.632812 4.453125 -8.578125 4.398438 -8.523438 C 4.289062 -8.359375 4.070312 -8.03125 3.90625 -7.808594 L 3.683594 -7.589844 C 3.628906 -7.535156 3.628906 -7.480469 3.628906 -7.371094 C 3.628906 -7.203125 3.792969 -7.09375 3.960938 -7.09375 Z M 0.441406 0.328125 C 2.308594 0.328125 8.085938 -2.363281 11.054688 -4.234375 C 11.109375 -4.289062 11.164062 -4.398438 11.164062 -4.511719 C 11.164062 -4.675781 11.054688 -4.785156 10.835938 -4.785156 L 10.667969 -4.785156 C 7.808594 -2.914062 2.144531 -0.328125 0.441406 -0.328125 C -0.164062 -0.328125 -0.441406 -0.550781 -0.441406 -1.101562 C -0.441406 -1.871094 0.878906 -3.738281 2.75 -5.664062 C 2.804688 -5.71875 2.859375 -5.773438 2.859375 -5.882812 C 2.859375 -6.050781 2.695312 -6.160156 2.53125 -6.160156 C 2.417969 -6.160156 2.363281 -6.160156 2.308594 -6.105469 C 0.273438 -4.015625 -1.046875 -2.144531 -1.046875 -1.101562 C -1.046875 -0.21875 -0.496094 0.328125 0.441406 0.328125 Z M 0.441406 0.328125 "/></g></g></g><g fill="#00285d" fill-opacity="1"><g transform="translate(156.979057, 199.760759)"><g><path d="M -1.484375 0.878906 C -1.265625 0.878906 -0.988281 0.550781 -0.605469 0.21875 C 0.109375 -0.441406 1.320312 -1.539062 2.640625 -2.53125 C 4.894531 -4.179688 6.433594 -5.058594 7.203125 -5.058594 C 7.480469 -5.058594 7.644531 -5.003906 7.644531 -4.730469 C 7.644531 -3.960938 6.984375 -2.914062 6.105469 -2.035156 L 5.828125 -2.035156 C 3.078125 -1.648438 1.761719 -1.429688 1.761719 -0.605469 C 1.761719 0 2.253906 0.386719 2.914062 0.386719 C 4.015625 0.386719 5.335938 -0.441406 6.433594 -1.484375 C 9.347656 -1.871094 13.199219 -2.417969 16.113281 -4.234375 C 16.167969 -4.289062 16.222656 -4.398438 16.222656 -4.511719 C 16.222656 -4.675781 16.113281 -4.785156 15.949219 -4.785156 L 15.785156 -4.785156 C 13.199219 -3.191406 9.84375 -2.585938 7.09375 -2.199219 C 7.808594 -3.023438 8.25 -3.960938 8.25 -4.730469 C 8.25 -5.335938 7.917969 -5.71875 7.316406 -5.71875 C 6.324219 -5.71875 4.675781 -4.785156 2.308594 -3.023438 C 0.878906 -2.035156 -0.328125 -0.933594 -0.550781 -0.714844 C -0.988281 -0.328125 -1.101562 -0.328125 -0.878906 -0.769531 C -0.386719 -1.648438 0.441406 -2.914062 1.484375 -4.34375 C 12.925781 -11.769531 23.925781 -24.253906 23.925781 -27.003906 C 23.925781 -27.609375 23.59375 -27.9375 22.988281 -27.9375 C 20.679688 -27.9375 7.203125 -13.199219 1.101562 -4.839844 L 1.046875 -4.785156 C -0.769531 -2.308594 -1.925781 -0.328125 -1.925781 0.441406 C -1.925781 0.660156 -1.761719 0.878906 -1.484375 0.878906 Z M 2.640625 -5.882812 C 9.074219 -14.1875 21.0625 -27.277344 22.988281 -27.277344 C 23.265625 -27.277344 23.320312 -27.222656 23.320312 -27.003906 C 23.320312 -24.582031 13.417969 -13.308594 2.640625 -5.882812 Z M 2.914062 -0.273438 C 2.585938 -0.273438 2.417969 -0.386719 2.417969 -0.605469 C 2.417969 -0.769531 3.136719 -0.988281 5.28125 -1.320312 C 4.511719 -0.660156 3.628906 -0.273438 2.914062 -0.273438 Z M 2.914062 -0.273438 "/></g></g></g><g fill="#00285d" fill-opacity="1"><g transform="translate(171.662994, 199.760759)"><g><path d="M 0.328125 2.417969 C 2.476562 2.417969 8.691406 -0.988281 13.363281 -4.234375 C 13.417969 -4.289062 13.472656 -4.34375 13.472656 -4.453125 C 13.472656 -4.621094 13.363281 -4.785156 13.199219 -4.785156 C 13.089844 -4.785156 13.035156 -4.785156 12.980469 -4.730469 C 7.753906 -1.101562 2.089844 1.816406 0.328125 1.816406 C -0.605469 1.816406 -0.878906 1.59375 -0.878906 0.824219 C -0.878906 -0.273438 -0.164062 -1.980469 1.101562 -3.960938 C 10.449219 -9.625 26.785156 -23.925781 26.785156 -27.113281 C 26.785156 -27.828125 26.34375 -28.214844 25.574219 -28.214844 C 20.953125 -28.214844 -1.484375 -5.664062 -1.484375 0.824219 C -1.484375 1.925781 -0.933594 2.417969 0.328125 2.417969 Z M 1.925781 -5.167969 C 7.976562 -14.078125 22.164062 -27.609375 25.574219 -27.609375 C 26.015625 -27.609375 26.179688 -27.445312 26.179688 -27.113281 C 26.179688 -24.472656 11.660156 -11.441406 1.925781 -5.167969 Z M 1.925781 -5.167969 "/></g></g></g><g fill="#00285d" fill-opacity="1"><g transform="translate(183.652121, 199.760759)"><g><path d="M 1.816406 0.164062 C 3.519531 0.164062 8.855469 -1.375 12.703125 -4.234375 C 12.8125 -4.289062 12.871094 -4.398438 12.871094 -4.511719 C 12.871094 -4.675781 12.703125 -4.785156 12.539062 -4.785156 C 12.484375 -4.785156 12.429688 -4.785156 12.375 -4.730469 C 8.578125 -1.980469 3.410156 -0.496094 1.816406 -0.496094 C 0.550781 -0.496094 -0.109375 -0.824219 -0.109375 -1.539062 C -0.109375 -2.253906 0.441406 -3.136719 1.15625 -3.90625 C 1.484375 -3.738281 1.925781 -3.683594 2.53125 -3.683594 C 3.519531 -3.683594 4.785156 -4.511719 4.785156 -5.226562 C 4.785156 -5.773438 4.398438 -6.105469 3.792969 -6.105469 C 1.980469 -6.105469 -0.769531 -3.355469 -0.769531 -1.539062 C -0.769531 -0.441406 0.21875 0.164062 1.816406 0.164062 Z M 2.53125 -4.289062 C 2.144531 -4.289062 1.871094 -4.34375 1.648438 -4.398438 C 2.363281 -5.003906 3.136719 -5.445312 3.792969 -5.445312 C 4.070312 -5.445312 4.179688 -5.390625 4.179688 -5.226562 C 4.179688 -4.894531 3.136719 -4.289062 2.53125 -4.289062 Z M 2.53125 -4.289062 "/></g></g></g><g fill="#00285d" fill-opacity="1"><g transform="translate(19.324158, 351.099968)"><g/></g></g><g fill="#00285d" fill-opacity="1"><g transform="translate(32.554626, 351.099968)"><g><path d="M 7.703125 0 L 1.9375 0 L 1.9375 -1.453125 L 4.0625 -1.453125 L 4.0625 -8.34375 L 1.9375 -8.34375 L 1.9375 -9.796875 L 7.703125 -9.796875 L 7.703125 -8.34375 L 5.578125 -8.34375 L 5.578125 -1.453125 L 7.703125 -1.453125 Z M 7.703125 0 "/></g></g></g><g fill="#00285d" fill-opacity="1"><g transform="translate(49.895256, 351.099968)"><g><path d="M 4.296875 0 L 4.296875 -8.34375 L 1 -8.34375 L 1 -9.796875 L 9.1875 -9.796875 L 9.1875 -8.34375 L 5.8125 -8.34375 L 5.8125 0 Z M 4.296875 0 "/></g></g></g><g fill="#00285d" fill-opacity="1"><g transform="translate(67.767591, 351.099968)"><g><path d="M 2.296875 -3 C 2.785156 -2.425781 3.289062 -1.984375 3.8125 -1.671875 C 4.34375 -1.367188 4.988281 -1.21875 5.75 -1.21875 C 6.164062 -1.21875 6.5625 -1.269531 6.9375 -1.375 C 7.3125 -1.488281 7.625 -1.65625 7.875 -1.875 C 8.125 -2.09375 8.25 -2.363281 8.25 -2.6875 C 8.25 -3.15625 8 -3.488281 7.5 -3.6875 C 7.007812 -3.894531 6.316406 -4.066406 5.421875 -4.203125 C 4.316406 -4.367188 3.4375 -4.675781 2.78125 -5.125 C 2.132812 -5.582031 1.8125 -6.242188 1.8125 -7.109375 C 1.8125 -7.703125 1.984375 -8.207031 2.328125 -8.625 C 2.679688 -9.039062 3.15625 -9.363281 3.75 -9.59375 C 4.34375 -9.820312 5 -9.9375 5.71875 -9.9375 C 6.613281 -9.9375 7.390625 -9.785156 8.046875 -9.484375 C 8.703125 -9.191406 9.21875 -8.769531 9.59375 -8.21875 L 8.546875 -7.140625 C 8.242188 -7.566406 7.847656 -7.910156 7.359375 -8.171875 C 6.878906 -8.441406 6.320312 -8.578125 5.6875 -8.578125 C 5.03125 -8.578125 4.484375 -8.457031 4.046875 -8.21875 C 3.609375 -7.988281 3.390625 -7.65625 3.390625 -7.21875 C 3.390625 -6.71875 3.625 -6.363281 4.09375 -6.15625 C 4.5625 -5.945312 5.179688 -5.78125 5.953125 -5.65625 C 6.453125 -5.582031 6.929688 -5.484375 7.390625 -5.359375 C 7.859375 -5.242188 8.273438 -5.082031 8.640625 -4.875 C 9.003906 -4.675781 9.289062 -4.421875 9.5 -4.109375 C 9.71875 -3.804688 9.828125 -3.425781 9.828125 -2.96875 C 9.828125 -2.34375 9.65625 -1.796875 9.3125 -1.328125 C 8.976562 -0.859375 8.5 -0.492188 7.875 -0.234375 C 7.257812 0.015625 6.53125 0.140625 5.6875 0.140625 C 4.78125 0.140625 3.960938 -0.00390625 3.234375 -0.296875 C 2.503906 -0.597656 1.863281 -1.085938 1.3125 -1.765625 Z M 2.296875 -3 "/></g></g></g><g fill="#00285d" fill-opacity="1"><g transform="translate(86.633375, 351.099968)"><g><path d="M 6.984375 -9.796875 C 7.546875 -9.796875 8.054688 -9.660156 8.515625 -9.390625 C 8.984375 -9.128906 9.351562 -8.769531 9.625 -8.3125 C 9.894531 -7.863281 10.03125 -7.359375 10.03125 -6.796875 C 10.03125 -6.210938 9.882812 -5.6875 9.59375 -5.21875 C 9.3125 -4.75 8.925781 -4.375 8.4375 -4.09375 C 7.945312 -3.8125 7.410156 -3.671875 6.828125 -3.671875 L 3.546875 -3.671875 L 3.546875 0 L 2.03125 0 L 2.03125 -9.796875 Z M 6.75 -5.125 C 7.050781 -5.125 7.332031 -5.203125 7.59375 -5.359375 C 7.863281 -5.515625 8.070312 -5.71875 8.21875 -5.96875 C 8.375 -6.21875 8.453125 -6.492188 8.453125 -6.796875 C 8.453125 -7.078125 8.375 -7.332031 8.21875 -7.5625 C 8.070312 -7.800781 7.863281 -7.988281 7.59375 -8.125 C 7.332031 -8.269531 7.050781 -8.34375 6.75 -8.34375 L 3.546875 -8.34375 L 3.546875 -5.125 Z M 6.75 -5.125 "/></g></g></g><g fill="#00285d" fill-opacity="1"><g transform="translate(105.709044, 351.099968)"><g><path d="M 12.15625 -4.90625 C 12.15625 -4.195312 12.019531 -3.535156 11.75 -2.921875 C 11.488281 -2.304688 11.113281 -1.769531 10.625 -1.3125 C 10.132812 -0.851562 9.554688 -0.492188 8.890625 -0.234375 C 8.234375 0.015625 7.515625 0.140625 6.734375 0.140625 C 5.929688 0.140625 5.195312 0.015625 4.53125 -0.234375 C 3.875 -0.492188 3.300781 -0.851562 2.8125 -1.3125 C 2.332031 -1.769531 1.957031 -2.304688 1.6875 -2.921875 C 1.425781 -3.535156 1.296875 -4.195312 1.296875 -4.90625 C 1.296875 -5.613281 1.425781 -6.269531 1.6875 -6.875 C 1.957031 -7.488281 2.332031 -8.023438 2.8125 -8.484375 C 3.300781 -8.941406 3.875 -9.296875 4.53125 -9.546875 C 5.195312 -9.804688 5.929688 -9.9375 6.734375 -9.9375 C 7.515625 -9.9375 8.234375 -9.804688 8.890625 -9.546875 C 9.554688 -9.296875 10.132812 -8.941406 10.625 -8.484375 C 11.113281 -8.023438 11.488281 -7.488281 11.75 -6.875 C 12.019531 -6.269531 12.15625 -5.613281 12.15625 -4.90625 Z M 10.609375 -4.90625 C 10.609375 -5.582031 10.441406 -6.1875 10.109375 -6.71875 C 9.785156 -7.257812 9.332031 -7.6875 8.75 -8 C 8.164062 -8.3125 7.492188 -8.46875 6.734375 -8.46875 C 5.960938 -8.46875 5.285156 -8.3125 4.703125 -8 C 4.117188 -7.6875 3.660156 -7.257812 3.328125 -6.71875 C 3.003906 -6.1875 2.84375 -5.582031 2.84375 -4.90625 C 2.84375 -4.21875 3.003906 -3.601562 3.328125 -3.0625 C 3.660156 -2.53125 4.117188 -2.109375 4.703125 -1.796875 C 5.285156 -1.484375 5.960938 -1.328125 6.734375 -1.328125 C 7.492188 -1.328125 8.164062 -1.484375 8.75 -1.796875 C 9.332031 -2.109375 9.785156 -2.535156 10.109375 -3.078125 C 10.441406 -3.617188 10.609375 -4.226562 10.609375 -4.90625 Z M 10.609375 -4.90625 "/></g></g></g><g fill="#00285d" fill-opacity="1"><g transform="translate(126.855556, 351.099968)"><g><path d="M 2.296875 -3 C 2.785156 -2.425781 3.289062 -1.984375 3.8125 -1.671875 C 4.34375 -1.367188 4.988281 -1.21875 5.75 -1.21875 C 6.164062 -1.21875 6.5625 -1.269531 6.9375 -1.375 C 7.3125 -1.488281 7.625 -1.65625 7.875 -1.875 C 8.125 -2.09375 8.25 -2.363281 8.25 -2.6875 C 8.25 -3.15625 8 -3.488281 7.5 -3.6875 C 7.007812 -3.894531 6.316406 -4.066406 5.421875 -4.203125 C 4.316406 -4.367188 3.4375 -4.675781 2.78125 -5.125 C 2.132812 -5.582031 1.8125 -6.242188 1.8125 -7.109375 C 1.8125 -7.703125 1.984375 -8.207031 2.328125 -8.625 C 2.679688 -9.039062 3.15625 -9.363281 3.75 -9.59375 C 4.34375 -9.820312 5 -9.9375 5.71875 -9.9375 C 6.613281 -9.9375 7.390625 -9.785156 8.046875 -9.484375 C 8.703125 -9.191406 9.21875 -8.769531 9.59375 -8.21875 L 8.546875 -7.140625 C 8.242188 -7.566406 7.847656 -7.910156 7.359375 -8.171875 C 6.878906 -8.441406 6.320312 -8.578125 5.6875 -8.578125 C 5.03125 -8.578125 4.484375 -8.457031 4.046875 -8.21875 C 3.609375 -7.988281 3.390625 -7.65625 3.390625 -7.21875 C 3.390625 -6.71875 3.625 -6.363281 4.09375 -6.15625 C 4.5625 -5.945312 5.179688 -5.78125 5.953125 -5.65625 C 6.453125 -5.582031 6.929688 -5.484375 7.390625 -5.359375 C 7.859375 -5.242188 8.273438 -5.082031 8.640625 -4.875 C 9.003906 -4.675781 9.289062 -4.421875 9.5 -4.109375 C 9.71875 -3.804688 9.828125 -3.425781 9.828125 -2.96875 C 9.828125 -2.34375 9.65625 -1.796875 9.3125 -1.328125 C 8.976562 -0.859375 8.5 -0.492188 7.875 -0.234375 C 7.257812 0.015625 6.53125 0.140625 5.6875 0.140625 C 4.78125 0.140625 3.960938 -0.00390625 3.234375 -0.296875 C 2.503906 -0.597656 1.863281 -1.085938 1.3125 -1.765625 Z M 2.296875 -3 "/></g></g></g><g fill="#00285d" fill-opacity="1"><g transform="translate(145.721341, 351.099968)"><g><path d="M 2.296875 -3 C 2.785156 -2.425781 3.289062 -1.984375 3.8125 -1.671875 C 4.34375 -1.367188 4.988281 -1.21875 5.75 -1.21875 C 6.164062 -1.21875 6.5625 -1.269531 6.9375 -1.375 C 7.3125 -1.488281 7.625 -1.65625 7.875 -1.875 C 8.125 -2.09375 8.25 -2.363281 8.25 -2.6875 C 8.25 -3.15625 8 -3.488281 7.5 -3.6875 C 7.007812 -3.894531 6.316406 -4.066406 5.421875 -4.203125 C 4.316406 -4.367188 3.4375 -4.675781 2.78125 -5.125 C 2.132812 -5.582031 1.8125 -6.242188 1.8125 -7.109375 C 1.8125 -7.703125 1.984375 -8.207031 2.328125 -8.625 C 2.679688 -9.039062 3.15625 -9.363281 3.75 -9.59375 C 4.34375 -9.820312 5 -9.9375 5.71875 -9.9375 C 6.613281 -9.9375 7.390625 -9.785156 8.046875 -9.484375 C 8.703125 -9.191406 9.21875 -8.769531 9.59375 -8.21875 L 8.546875 -7.140625 C 8.242188 -7.566406 7.847656 -7.910156 7.359375 -8.171875 C 6.878906 -8.441406 6.320312 -8.578125 5.6875 -8.578125 C 5.03125 -8.578125 4.484375 -8.457031 4.046875 -8.21875 C 3.609375 -7.988281 3.390625 -7.65625 3.390625 -7.21875 C 3.390625 -6.71875 3.625 -6.363281 4.09375 -6.15625 C 4.5625 -5.945312 5.179688 -5.78125 5.953125 -5.65625 C 6.453125 -5.582031 6.929688 -5.484375 7.390625 -5.359375 C 7.859375 -5.242188 8.273438 -5.082031 8.640625 -4.875 C 9.003906 -4.675781 9.289062 -4.421875 9.5 -4.109375 C 9.71875 -3.804688 9.828125 -3.425781 9.828125 -2.96875 C 9.828125 -2.34375 9.65625 -1.796875 9.3125 -1.328125 C 8.976562 -0.859375 8.5 -0.492188 7.875 -0.234375 C 7.257812 0.015625 6.53125 0.140625 5.6875 0.140625 C 4.78125 0.140625 3.960938 -0.00390625 3.234375 -0.296875 C 2.503906 -0.597656 1.863281 -1.085938 1.3125 -1.765625 Z M 2.296875 -3 "/></g></g></g><g fill="#00285d" fill-opacity="1"><g transform="translate(164.587119, 351.099968)"><g><path d="M 7.703125 0 L 1.9375 0 L 1.9375 -1.453125 L 4.0625 -1.453125 L 4.0625 -8.34375 L 1.9375 -8.34375 L 1.9375 -9.796875 L 7.703125 -9.796875 L 7.703125 -8.34375 L 5.578125 -8.34375 L 5.578125 -1.453125 L 7.703125 -1.453125 Z M 7.703125 0 "/></g></g></g><g fill="#00285d" fill-opacity="1"><g transform="translate(181.927755, 351.099968)"><g><path d="M 6.8125 -9.796875 C 7.925781 -9.796875 8.765625 -9.585938 9.328125 -9.171875 C 9.890625 -8.753906 10.171875 -8.144531 10.171875 -7.34375 C 10.171875 -6.894531 10.050781 -6.492188 9.8125 -6.140625 C 9.582031 -5.796875 9.238281 -5.53125 8.78125 -5.34375 C 9.113281 -5.238281 9.425781 -5.082031 9.71875 -4.875 C 10.007812 -4.664062 10.242188 -4.394531 10.421875 -4.0625 C 10.609375 -3.738281 10.703125 -3.347656 10.703125 -2.890625 C 10.703125 -2.316406 10.59375 -1.84375 10.375 -1.46875 C 10.15625 -1.09375 9.867188 -0.796875 9.515625 -0.578125 C 9.171875 -0.367188 8.785156 -0.21875 8.359375 -0.125 C 7.941406 -0.0390625 7.515625 0 7.078125 0 L 2.03125 0 L 2.03125 -9.796875 Z M 6.78125 -8.34375 L 3.546875 -8.34375 L 3.546875 -5.78125 L 6.9375 -5.78125 C 7.382812 -5.789062 7.78125 -5.90625 8.125 -6.125 C 8.46875 -6.351562 8.640625 -6.671875 8.640625 -7.078125 C 8.640625 -7.535156 8.457031 -7.859375 8.09375 -8.046875 C 7.738281 -8.242188 7.300781 -8.34375 6.78125 -8.34375 Z M 7.015625 -4.328125 L 3.546875 -4.328125 L 3.546875 -1.453125 L 7.078125 -1.453125 C 7.691406 -1.453125 8.191406 -1.570312 8.578125 -1.8125 C 8.960938 -2.050781 9.15625 -2.414062 9.15625 -2.90625 C 9.15625 -3.269531 9.046875 -3.554688 8.828125 -3.765625 C 8.609375 -3.972656 8.332031 -4.117188 8 -4.203125 C 7.664062 -4.285156 7.335938 -4.328125 7.015625 -4.328125 Z M 7.015625 -4.328125 "/></g></g></g><g fill="#00285d" fill-opacity="1"><g transform="translate(201.619076, 351.099968)"><g><path d="M 9.21875 -1.453125 L 9.21875 0 L 2.03125 0 L 2.03125 -9.796875 L 3.546875 -9.796875 L 3.546875 -1.453125 Z M 9.21875 -1.453125 "/></g></g></g><g fill="#00285d" fill-opacity="1"><g transform="translate(220.037105, 351.099968)"><g><path d="M 2.03125 -9.796875 L 9.296875 -9.796875 L 9.296875 -8.34375 L 3.546875 -8.34375 L 3.546875 -5.75 L 8.53125 -5.75 L 8.53125 -4.296875 L 3.546875 -4.296875 L 3.546875 -1.453125 L 9.296875 -1.453125 L 9.296875 0 L 2.03125 0 Z M 2.03125 -9.796875 "/></g></g></g><g fill="#00285d" fill-opacity="1"><g transform="translate(238.748972, 351.099968)"><g><path d="M 2.859375 0.15625 C 2.429688 0.15625 2.113281 0.0625 1.90625 -0.125 C 1.707031 -0.320312 1.609375 -0.578125 1.609375 -0.890625 C 1.609375 -1.160156 1.707031 -1.40625 1.90625 -1.625 C 2.113281 -1.84375 2.429688 -1.953125 2.859375 -1.953125 C 3.273438 -1.953125 3.582031 -1.851562 3.78125 -1.65625 C 3.988281 -1.46875 4.09375 -1.210938 4.09375 -0.890625 C 4.09375 -0.628906 3.988281 -0.390625 3.78125 -0.171875 C 3.582031 0.046875 3.273438 0.15625 2.859375 0.15625 Z M 2.859375 0.15625 "/></g></g></g><g fill="#00285d" fill-opacity="1"><g transform="translate(252.1438, 351.099968)"><g><path d="M 4.296875 0 L 4.296875 -8.34375 L 1 -8.34375 L 1 -9.796875 L 9.1875 -9.796875 L 9.1875 -8.34375 L 5.8125 -8.34375 L 5.8125 0 Z M 4.296875 0 "/></g></g></g><g fill="#00285d" fill-opacity="1"><g transform="translate(270.016129, 351.099968)"><g><path d="M 2.03125 -9.796875 L 9.296875 -9.796875 L 9.296875 -8.34375 L 3.546875 -8.34375 L 3.546875 -5.75 L 8.53125 -5.75 L 8.53125 -4.296875 L 3.546875 -4.296875 L 3.546875 -1.453125 L 9.296875 -1.453125 L 9.296875 0 L 2.03125 0 Z M 2.03125 -9.796875 "/></g></g></g><g fill="#00285d" fill-opacity="1"><g transform="translate(288.727996, 351.099968)"><g><path d="M 10.546875 -1.34375 C 10.304688 -1.125 9.984375 -0.898438 9.578125 -0.671875 C 9.171875 -0.441406 8.707031 -0.25 8.1875 -0.09375 C 7.664062 0.0625 7.113281 0.140625 6.53125 0.140625 C 5.789062 0.140625 5.101562 0.0195312 4.46875 -0.21875 C 3.84375 -0.457031 3.289062 -0.796875 2.8125 -1.234375 C 2.332031 -1.671875 1.957031 -2.195312 1.6875 -2.8125 C 1.425781 -3.4375 1.296875 -4.132812 1.296875 -4.90625 C 1.296875 -5.625 1.4375 -6.285156 1.71875 -6.890625 C 2 -7.492188 2.382812 -8.019531 2.875 -8.46875 C 3.363281 -8.914062 3.925781 -9.265625 4.5625 -9.515625 C 5.195312 -9.765625 5.867188 -9.890625 6.578125 -9.890625 C 7.171875 -9.890625 7.726562 -9.804688 8.25 -9.640625 C 8.78125 -9.472656 9.253906 -9.265625 9.671875 -9.015625 C 10.085938 -8.765625 10.421875 -8.5 10.671875 -8.21875 L 9.71875 -7.046875 C 9.28125 -7.429688 8.796875 -7.75 8.265625 -8 C 7.734375 -8.257812 7.144531 -8.390625 6.5 -8.390625 C 6.039062 -8.390625 5.59375 -8.304688 5.15625 -8.140625 C 4.71875 -7.984375 4.320312 -7.753906 3.96875 -7.453125 C 3.625 -7.148438 3.347656 -6.785156 3.140625 -6.359375 C 2.941406 -5.929688 2.84375 -5.445312 2.84375 -4.90625 C 2.84375 -4.113281 3.023438 -3.453125 3.390625 -2.921875 C 3.753906 -2.398438 4.226562 -2.007812 4.8125 -1.75 C 5.394531 -1.488281 6.019531 -1.359375 6.6875 -1.359375 C 7.164062 -1.359375 7.59375 -1.421875 7.96875 -1.546875 C 8.351562 -1.671875 8.695312 -1.828125 9 -2.015625 C 9.3125 -2.210938 9.578125 -2.40625 9.796875 -2.59375 Z M 10.546875 -1.34375 "/></g></g></g><g fill="#00285d" fill-opacity="1"><g transform="translate(308.293386, 351.099968)"><g><path d="M 3.546875 -9.796875 L 3.546875 -5.59375 L 9.515625 -5.59375 L 9.515625 -9.796875 L 11.03125 -9.796875 L 11.03125 0 L 9.515625 0 L 9.515625 -4.125 L 3.546875 -4.125 L 3.546875 0 L 2.03125 0 L 2.03125 -9.796875 Z M 3.546875 -9.796875 "/></g></g></g></svg>